<svg id="Layer_2" height="512" viewBox="0 0 64 64" width="512" xmlns="http://www.w3.org/2000/svg" xmlns:xlink="http://www.w3.org/1999/xlink" data-name="Layer 2"><linearGradient id="linear-gradient" gradientUnits="userSpaceOnUse" x1="64.5" x2="2.9" y1="2.5" y2="64.1"><stop offset="0" stop-color="#f7941e"/><stop offset="1" stop-color="#ee2a7b"/></linearGradient><linearGradient id="linear-gradient-2" x1="67" x2="5.4" xlink:href="#linear-gradient" y1="5" y2="66.6"/><linearGradient id="linear-gradient-3" x1="60.5" x2="-1.1" xlink:href="#linear-gradient" y1="-1.5" y2="60.1"/><path d="m24 64h16a1 1 0 0 0 1-1v-5.3a15.025 15.025 0 0 0 12-14.7v-16a15.014 15.014 0 0 0 -11-14.442v-5.558a1 1 0 0 0 -1-1h-8v-5a1 1 0 0 0 -2 0v5h-7a1 1 0 0 0 -1 1v5.3a15.025 15.025 0 0 0 -12 14.7v16a15.025 15.025 0 0 0 12 14.7v5.3a1 1 0 0 0 1 1zm15-6v4h-14v-4zm-14-46v-4h15v4zm1 2h12a12.991 12.991 0 0 1 10.937 6h-33.874a12.991 12.991 0 0 1 10.937-6zm-12 8h36a12.925 12.925 0 0 1 1 5h-2a1 1 0 0 0 0 2h2v5h-38v-5h26a1 1 0 0 0 0-2h-26a12.925 12.925 0 0 1 1-5zm-1 14h38v5h-29a1 1 0 0 0 0 2h29a12.925 12.925 0 0 1 -1 5h-36a12.925 12.925 0 0 1 -1-5zm2.063 14h33.874a12.991 12.991 0 0 1 -10.937 6h-12a12.991 12.991 0 0 1 -10.937-6z" fill="url(#linear-gradient)"/><path d="m43 29h2a1 1 0 0 0 0-2h-2a1 1 0 0 0 0 2z" fill="url(#linear-gradient-2)"/><path d="m16 43h2a1 1 0 0 0 0-2h-2a1 1 0 0 0 0 2z" fill="url(#linear-gradient-3)"/></svg>