<?xml version="1.0" encoding="UTF-8"?>
<svg width="200px" height="66px" viewBox="0 0 200 66" version="1.1" xmlns="http://www.w3.org/2000/svg" xmlns:xlink="http://www.w3.org/1999/xlink">
    <title>Artifact Logo</title>
    <g id="Artifact-Logo" stroke="none" stroke-width="1" fill="none" fill-rule="evenodd">
        <polygon id="Fill-1" fill="#F99D00" points="0 0 0 12.237293 38.4870189 49.5692748 32.2296206 56.0199408 0 24.7566778 0 66 66 66 66 55.2944905 25.9342774 16.430226 32.1916757 9.98005916 66 42.7736079 66 0"></polygon>
        <path d="M159.329576,26.3071612 C161.840914,26.3071612 163.673168,26.94199 164.827356,28.2126648 C165.981035,29.482831 166.557875,31.4325895 166.557875,34.060923 L166.557875,42.5161501 C166.557875,45.5244652 166.747611,47.6863419 167.127593,49.0002543 L162.702613,49.0002543 C162.468621,48.7082738 162.337383,47.6130925 162.308388,45.7147104 C161.432447,48.1970535 159.606805,49.4382251 156.832482,49.4382251 C155.13757,49.4382251 153.794154,48.9275135 152.801726,47.9045643 C151.808789,46.8826325 151.31232,45.4812277 151.31232,43.6993325 C151.31232,41.9184548 151.772164,40.4646562 152.69236,39.3399717 C153.612048,38.2163044 155.152322,37.2747435 157.314199,36.5147802 C159.241575,35.8428181 160.468504,35.3173549 160.993967,34.9373732 C161.51943,34.558409 161.782416,34.0171767 161.782416,33.31622 L161.782416,33.0974889 C161.782416,31.2576047 160.950221,30.3374082 159.28583,30.3374082 C157.473923,30.3374082 156.569496,31.3308541 156.569496,33.31622 L156.569496,33.7109533 L152.100769,33.7109533 L152.100769,33.4479673 C152.100769,31.1701122 152.721355,29.4105989 153.962527,28.1689186 C155.203698,26.927747 156.992206,26.3071612 159.329576,26.3071612 Z M177.860217,26.3074664 C180.254559,26.3074664 182.08834,26.9794286 183.358506,28.3223356 C184.629181,29.6657512 185.264009,31.5356474 185.264009,33.9299895 L185.264009,34.850186 L180.620298,34.850186 L180.620298,33.5795112 C180.620298,31.5356474 179.70061,30.5126982 177.860217,30.5126982 C175.991339,30.5126982 175.056899,31.5356474 175.056899,33.5795112 L175.056899,42.1659769 C175.056899,44.210858 175.991339,45.2327899 177.860217,45.2327899 C179.70061,45.2327899 180.620298,44.210858 180.620298,42.1659769 L180.620298,40.4135851 L185.264009,40.4135851 L185.264009,41.7717524 C185.264009,44.1966151 184.635793,46.0802456 183.380379,47.4226439 C182.124456,48.7665682 180.284571,49.4380217 177.860217,49.4380217 C175.407377,49.4380217 173.523238,48.774707 172.209326,47.444517 C170.894905,46.1163616 170.237694,44.2245923 170.237694,41.7717524 L170.237694,33.9737357 C170.237694,31.5203871 170.894905,29.6296352 172.209326,28.3004625 C173.523238,26.9717984 175.407377,26.3074664 177.860217,26.3074664 Z M122.792994,20.787254 L122.792994,26.7453864 L126.867496,26.7453864 L126.867496,30.7318871 L122.792994,30.7318871 L122.792994,42.7793904 C122.792994,43.6268461 122.960858,44.2403104 123.296585,44.6192747 C123.63282,44.9992563 124.194908,45.1889928 124.983866,45.1889928 C125.596821,45.1889928 126.224529,45.0719971 126.867496,44.8380057 L126.867496,48.9125076 C126.049544,49.2629859 125.099844,49.4379708 124.019414,49.4379708 C120.018162,49.4379708 118.018045,47.422593 118.018045,43.3928547 L118.018045,30.7318871 L115.038724,30.7318871 L115.038724,26.7453864 L118.193029,26.7453864 L118.587763,20.787254 L122.792994,20.787254 Z M195.120489,20.787254 L195.120489,26.7453864 L199.194991,26.7453864 L199.194991,30.7318871 L195.120489,30.7318871 L195.120489,42.7793904 C195.120489,43.6268461 195.288352,44.2403104 195.624079,44.6192747 C195.960314,44.9992563 196.522402,45.1889928 197.31136,45.1889928 C197.924316,45.1889928 198.552023,45.0719971 199.194991,44.8380057 L199.194991,48.9125076 C198.377038,49.2629859 197.427338,49.4379708 196.346909,49.4379708 C192.345656,49.4379708 190.345539,47.422593 190.345539,43.3928547 L190.345539,30.7318871 L187.366218,30.7318871 L187.366218,26.7453864 L190.520524,26.7453864 L190.915257,20.787254 L195.120489,20.787254 Z M93.6172214,18.3339054 L99.5316075,49 L94.4494168,49 L93.4422366,43.0418677 L86.6951464,43.0418677 L85.6442199,49 L81,49 L86.8706399,18.3339054 L93.6172214,18.3339054 Z M134.927787,26.745539 L134.927787,49.0001526 L130.108582,49.0001526 L130.108582,26.745539 L134.927787,26.745539 Z M146.843288,17.8959855 C147.865729,17.8959855 148.81492,18.0567274 149.69137,18.3777025 L149.69137,22.4522043 C149.1069,22.2477162 148.478685,22.1454722 147.80774,22.1454722 C147.018782,22.1454722 146.463815,22.3275785 146.14284,22.6928085 C145.821356,23.0585472 145.660615,23.6638727 145.660615,24.5108197 L145.660615,26.7454372 L149.69137,26.7454372 L149.69137,30.731938 L145.660615,30.731938 L145.660615,49.0000509 L140.841918,49.0000509 L140.841918,30.731938 L137.906853,30.731938 L137.906853,26.7454372 L140.841918,26.7454372 L140.841918,23.9411016 C140.841918,19.9108546 142.842036,17.8959855 146.843288,17.8959855 Z M111.710553,26.307263 C112.352503,26.307263 112.84948,26.3947554 113.199959,26.5702489 L113.199959,31.2139602 C112.790474,31.1264678 112.337752,31.0822129 111.841792,31.0822129 C108.774979,31.0822129 107.241827,32.9953466 107.241827,36.8211055 L107.241827,48.9998474 L102.422622,48.9998474 L102.422622,26.7452338 L106.584616,26.7452338 L106.672617,30.8629731 C107.431563,27.8256635 109.110705,26.307263 111.710553,26.307263 Z M161.782416,38.0916786 C161.402943,38.4716602 160.394746,38.9971234 158.759858,39.6690856 C156.977963,40.3990369 156.087779,41.4947269 156.087779,42.9546296 C156.087779,44.5905344 156.890471,45.4079782 158.496872,45.4079782 C159.518804,45.4079782 160.322005,45.0427482 160.906475,44.3127969 C161.490436,43.5828455 161.782416,42.5161501 161.782416,41.1147453 L161.782416,38.0916786 Z M90.0686915,23.5030799 L87.4398493,38.7048886 L92.6970249,38.7048886 L90.0686915,23.5030799 Z M134.971533,18.3772956 L134.971533,23.7219636 L130.152837,23.7219636 L130.152837,18.3772956 L134.971533,18.3772956 Z" id="Combined-Shape" fill="#201D1D"></path>
    </g>
</svg>